<svg width="12" height="12" viewBox="0 0 12 12" fill="none" xmlns="http://www.w3.org/2000/svg">
  <path
    d="M2.32 1.75H1.68C1.44252 1.75 1.25 1.94252 1.25 2.18V6.32C1.25 6.55748 1.44252 6.75 1.68 6.75H2.32C2.55748 6.75 2.75 6.55748 2.75 6.32V2.18C2.75 1.94252 2.55748 1.75 2.32 1.75Z"
    fill="#D22020"/>
  <path
    d="M10.75 5.66V5.58C10.7516 5.52781 10.7395 5.4761 10.715 5.43L9.27502 2.5C9.16109 2.27425 8.98669 2.08459 8.77127 1.95216C8.55585 1.81973 8.30788 1.74974 8.05502 1.75H5.00002C4.6693 1.75262 4.35288 1.88515 4.11902 2.11901C3.88517 2.35286 3.75263 2.66929 3.75002 3V6.685C3.74858 6.98134 3.84922 7.26913 4.03501 7.5L6.15002 10.12C6.1813 10.1589 6.22089 10.1903 6.26587 10.2119C6.31085 10.2335 6.3601 10.2449 6.41002 10.245C6.6328 10.245 6.84645 10.1565 7.00399 9.99897C7.16152 9.84144 7.25002 9.62778 7.25002 9.405V7.5C7.25249 7.43449 7.27962 7.37233 7.32598 7.32597C7.37234 7.27961 7.4345 7.25248 7.50002 7.25H9.15002C9.35947 7.25066 9.56701 7.21005 9.76078 7.1305C9.95454 7.05095 10.1307 6.93402 10.2793 6.78637C10.4279 6.63873 10.5459 6.46326 10.6267 6.27C10.7075 6.07674 10.7494 5.86946 10.75 5.66Z"
    fill="#D22020"/>
</svg>
