<svg width="92" height="92" viewBox="0 0 92 92" fill="none" xmlns="http://www.w3.org/2000/svg">
  <path fill-rule="evenodd" clip-rule="evenodd"
        d="M86 46C86 68.0914 68.0914 86 46 86C23.9086 86 6 68.0914 6 46C6 23.9086 23.9086 6 46 6C68.0914 6 86 23.9086 86 46ZM92 46C92 71.4051 71.4051 92 46 92C20.5949 92 0 71.4051 0 46C0 20.5949 20.5949 0 46 0C71.4051 0 92 20.5949 92 46ZM29.7737 71.8072C27.5569 70.5247 27.5569 21.7757 29.7737 20.4932C31.9905 19.2106 74.1111 43.5851 74.1111 46.1502C74.1111 48.7153 31.9905 73.0898 29.7737 71.8072Z"
        fill="white"/>
</svg>
