<svg width="24" height="24" viewBox="0 0 24 24" fill="none" xmlns="http://www.w3.org/2000/svg">
  <path
    d="M9.99492 0C12.6457 0 15.188 1.05303 17.0624 2.92745C18.9368 4.80186 19.9898 7.34411 19.9898 9.99492C19.9865 11.6025 19.5954 13.1856 18.8498 14.6098L23.0781 18.8381C23.3659 19.1144 23.5956 19.4453 23.7539 19.8115C23.9122 20.1777 23.9958 20.5718 23.9998 20.9707C24.0039 21.3696 23.9283 21.7654 23.7775 22.1347C23.6267 22.504 23.4038 22.8396 23.1217 23.1217C22.8396 23.4038 22.504 23.6267 22.1347 23.7775C21.7654 23.9283 21.3696 24.0039 20.9707 23.9998C20.5718 23.9958 20.1777 23.9122 19.8115 23.7539C19.4453 23.5956 19.1144 23.3659 18.8381 23.0781L14.6137 18.8537C13.1879 19.5986 11.6035 19.9883 9.99492 19.9898C8.68237 19.9898 7.38266 19.7313 6.17002 19.229C4.95738 18.7267 3.85555 17.9905 2.92743 17.0624C1.99932 16.1343 1.2631 15.0325 0.760807 13.8198C0.258514 12.6072 -1.14441e-05 11.3075 -1.14441e-05 9.99492C-1.14441e-05 8.68237 0.258514 7.38267 0.760807 6.17003C1.2631 4.95739 1.99932 3.85556 2.92743 2.92745C3.85555 1.99933 4.95738 1.26311 6.17002 0.760818C7.38266 0.258526 8.68237 0 9.99492 0V0ZM9.99492 3.99797C8.40443 3.99797 6.87907 4.62979 5.75443 5.75444C4.62978 6.87908 3.99796 8.40443 3.99796 9.99492C3.99796 11.5854 4.62978 13.1108 5.75443 14.2354C6.87907 15.3601 8.40443 15.9919 9.99492 15.9919C11.5854 15.9919 13.1108 15.3601 14.2354 14.2354C15.3601 13.1108 15.9919 11.5854 15.9919 9.99492C15.9919 8.40443 15.3601 6.87908 14.2354 5.75444C13.1108 4.62979 11.5854 3.99797 9.99492 3.99797Z"
    fill="#F9F9FB"/>
</svg>
