<svg width="12" height="12" viewBox="0 0 12 12" fill="none" xmlns="http://www.w3.org/2000/svg">
  <path
    d="M2.32 5.25H1.68C1.56636 5.2513 1.45774 5.29702 1.37738 5.37738C1.29702 5.45774 1.2513 5.56636 1.25 5.68V9.82C1.2513 9.93364 1.29702 10.0423 1.37738 10.1226C1.45774 10.203 1.56636 10.2487 1.68 10.25H2.32C2.43364 10.2487 2.54226 10.203 2.62262 10.1226C2.70298 10.0423 2.7487 9.93364 2.75 9.82V5.68C2.7487 5.56636 2.70298 5.45774 2.62262 5.37738C2.54226 5.29702 2.43364 5.2513 2.32 5.25ZM2.25 9.75H1.75V5.75H2.25V9.75Z"
    fill="#47AD45"/>
  <path
    d="M9.16 4.75H7.5C7.43449 4.74753 7.37233 4.72039 7.32597 4.67403C7.27961 4.62767 7.25248 4.56551 7.25 4.5V2.59C7.25 2.36722 7.1615 2.15356 7.00397 1.99603C6.84644 1.8385 6.63278 1.75 6.41 1.75C6.36009 1.75015 6.31084 1.76145 6.26586 1.78308C6.22087 1.80471 6.18129 1.83611 6.15 1.875L4.035 4.5C3.85029 4.72953 3.74972 5.01538 3.75 5.31V9C3.75262 9.33071 3.88515 9.64714 4.11901 9.88099C4.35286 10.1149 4.66929 10.2474 5 10.25H8.045C8.29956 10.2521 8.54965 10.183 8.767 10.0505C8.98435 9.91795 9.16031 9.72727 9.275 9.5L10.715 6.575C10.7395 6.5289 10.7516 6.47719 10.75 6.425V6.345C10.75 5.92284 10.5826 5.51791 10.2846 5.21893C9.98656 4.91995 9.58215 4.75132 9.16 4.75ZM10.25 6.385L8.825 9.275C8.75346 9.4179 8.64352 9.53804 8.50751 9.62194C8.3715 9.70584 8.21481 9.75018 8.055 9.75H5C4.80189 9.74741 4.61263 9.66756 4.47253 9.52747C4.33244 9.38737 4.25259 9.19811 4.25 9V5.305C4.24779 5.12295 4.30975 4.94594 4.425 4.805L6.5 2.26C6.5754 2.27611 6.64294 2.31773 6.69121 2.37785C6.73949 2.43797 6.76555 2.5129 6.765 2.59V4.5C6.76747 4.69557 6.84524 4.88266 6.98214 5.02236C7.11904 5.16205 7.30452 5.24358 7.5 5.25H9.15C9.43868 5.25132 9.71516 5.36658 9.91929 5.57071C10.1234 5.77484 10.2387 6.05132 10.24 6.34L10.25 6.385Z"
    fill="#47AD45"/>
</svg>
