<svg width="12" height="12" viewBox="0 0 12 12" fill="none" xmlns="http://www.w3.org/2000/svg">
  <path
    d="M2.32 5.25H1.68C1.44252 5.25 1.25 5.44252 1.25 5.68V9.82C1.25 10.0575 1.44252 10.25 1.68 10.25H2.32C2.55748 10.25 2.75 10.0575 2.75 9.82V5.68C2.75 5.44252 2.55748 5.25 2.32 5.25Z"
    fill="#47AD45"/>
  <path
    d="M9.16 4.75H7.5C7.43449 4.74753 7.37233 4.72039 7.32597 4.67403C7.27961 4.62767 7.25248 4.56551 7.25 4.5V2.59C7.25 2.36722 7.1615 2.15356 7.00397 1.99603C6.84644 1.8385 6.63278 1.75 6.41 1.75C6.36009 1.75015 6.31084 1.76145 6.26586 1.78308C6.22087 1.80471 6.18129 1.83611 6.15 1.875L4.035 4.5C3.85029 4.72953 3.74972 5.01538 3.75 5.31V9C3.75262 9.33071 3.88515 9.64714 4.11901 9.88099C4.35286 10.1149 4.66929 10.2474 5 10.25H8.045C8.29956 10.2521 8.54965 10.183 8.767 10.0505C8.98435 9.91795 9.16031 9.72727 9.275 9.5L10.715 6.575C10.7395 6.5289 10.7516 6.47719 10.75 6.425V6.345C10.75 5.92284 10.5826 5.51791 10.2846 5.21893C9.98656 4.91995 9.58215 4.75132 9.16 4.75Z"
    fill="#47AD45"/>
</svg>
