<svg width="12" height="8" viewBox="0 0 12 8" fill="none" xmlns="http://www.w3.org/2000/svg">
  <path
    d="M7.65196 3.99995C7.65196 3.08784 6.91274 2.34793 6.00011 2.34793C5.08749 2.34793 4.3481 3.08758 4.3481 3.99995C4.3481 4.91215 5.08741 5.65189 6.00011 5.65189C6.91248 5.65189 7.65196 4.91224 7.65196 3.99995ZM10.9272 3.99496C9.79988 5.48501 8.01248 6.44792 6.0002 6.44792C3.98767 6.44792 2.20044 5.48501 1.0731 3.99496C2.20035 2.50499 3.98767 1.54207 6.00011 1.54207C8.01256 1.54207 9.79979 2.50499 10.9272 3.99496ZM11.94 3.99775C10.6998 2.02654 8.50346 0.716064 6.00011 0.716064C3.49677 0.716064 1.30026 2.02654 0.0600586 3.99775C1.30026 5.9715 3.49677 7.28367 6.00011 7.28367C8.50346 7.28367 10.6998 5.9715 11.94 3.99775Z"
    fill="white"/>
</svg>
