<svg width="101" height="30" viewBox="0 0 101 30" fill="none" xmlns="http://www.w3.org/2000/svg">
  <path
    d="M44.8 17.74V24.24H40.29V4.79001H47.15C48.3453 4.76285 49.5373 4.9283 50.68 5.28001C51.5759 5.54914 52.4043 6.00594 53.11 6.62001C53.733 7.16451 54.2165 7.85031 54.52 8.62001C54.8406 9.42133 55.0036 10.277 55 11.14C55.0089 12.0513 54.8495 12.9565 54.53 13.81C54.2261 14.6104 53.7359 15.3268 53.1 15.9C52.3879 16.515 51.5576 16.9778 50.66 17.26C49.529 17.6018 48.3513 17.7638 47.17 17.74H44.8ZM44.8 14.33H47.15C47.6085 14.3738 48.0711 14.3218 48.5084 14.1772C48.9456 14.0326 49.3481 13.7986 49.69 13.49C50.2406 12.8356 50.5166 11.9934 50.46 11.14C50.4686 10.7278 50.4008 10.3175 50.26 9.93002C50.1362 9.5746 49.9267 9.25518 49.65 9.00001C49.3681 8.72242 49.0259 8.51366 48.65 8.39002C48.1754 8.2366 47.6788 8.16228 47.18 8.17001H44.8V14.33Z"
    fill="white"/>
  <path d="M61.62 10.39V24.24H57.48V10.39H61.62Z" fill="white"/>
  <path
    d="M62.1 6.60001C62.0994 6.92384 62.0313 7.24398 61.9 7.54001C61.7628 7.82371 61.5766 8.08099 61.35 8.30001C61.1098 8.51581 60.8363 8.69141 60.54 8.82001C60.222 8.94689 59.8825 9.01139 59.54 9.01001C59.1972 9.01536 58.857 8.95071 58.54 8.82001C58.2561 8.68566 57.9933 8.51047 57.76 8.30001C57.5395 8.07804 57.3571 7.82127 57.22 7.54001C56.98 6.93288 56.98 6.25714 57.22 5.65001C57.3519 5.36277 57.5349 5.10187 57.76 4.88001C57.9855 4.65979 58.25 4.48345 58.54 4.36001C58.8554 4.22407 59.1968 4.1592 59.54 4.17001C59.8829 4.16352 60.2234 4.22822 60.54 4.36001C61.1418 4.60002 61.6286 5.06174 61.9 5.65001C62.0324 5.94922 62.1005 6.27285 62.1 6.60001Z"
    fill="#EE442A"/>
  <path
    d="M75 13.68C74.8904 13.81 74.77 13.9304 74.64 14.04C74.4923 14.1374 74.3165 14.1832 74.14 14.17C73.9447 14.17 73.7524 14.1219 73.58 14.03L73 13.71C72.7719 13.573 72.5307 13.4591 72.28 13.37C71.9573 13.2651 71.6194 13.2144 71.28 13.22C70.8245 13.2119 70.373 13.3076 69.96 13.5C69.5931 13.6887 69.28 13.9674 69.05 14.31C68.79 14.6983 68.6067 15.1328 68.51 15.59C68.3924 16.1455 68.3354 16.7122 68.34 17.28C68.2706 18.3541 68.5361 19.4232 69.1 20.34C69.3363 20.6808 69.654 20.9572 70.0242 21.144C70.3945 21.3309 70.8055 21.4223 71.22 21.41C71.6072 21.4233 71.9935 21.3656 72.36 21.24C72.6112 21.1278 72.8521 20.994 73.08 20.84L73.61 20.42C73.796 20.2956 74.0164 20.2327 74.24 20.24C74.3853 20.2317 74.5303 20.2603 74.6614 20.3233C74.7926 20.3862 74.9057 20.4815 74.99 20.6L76.19 22.08C75.7956 22.5385 75.3416 22.9421 74.84 23.28C74.3851 23.5734 73.8987 23.8149 73.39 24C72.9073 24.1696 72.4078 24.2869 71.9 24.35C71.4199 24.4207 70.9353 24.4574 70.45 24.46C69.6213 24.4594 68.8009 24.2938 68.0369 23.9727C67.2728 23.6516 66.5804 23.1816 66 22.59C65.3968 21.9322 64.925 21.1651 64.61 20.33C64.2614 19.3687 64.0886 18.3525 64.1 17.33C64.095 16.3823 64.2436 15.4401 64.54 14.54C64.8262 13.7076 65.2787 12.9421 65.87 12.29C66.4554 11.6183 67.183 11.0854 68 10.73C68.952 10.3437 69.9729 10.1565 71 10.18C71.9787 10.1579 72.9517 10.3348 73.86 10.7C74.6643 11.0646 75.3908 11.5807 76 12.22L75 13.68Z"
    fill="white"/>
  <path
    d="M82.81 24.46C82.215 24.4671 81.6231 24.3724 81.06 24.18C80.5849 23.9967 80.1526 23.7176 79.79 23.36C79.4393 22.9939 79.17 22.5577 79 22.08C78.8143 21.5431 78.7229 20.9781 78.73 20.41V13.25H77.58C77.4797 13.2547 77.3794 13.2394 77.285 13.2051C77.1906 13.1707 77.1039 13.118 77.03 13.05C76.9515 12.9698 76.8905 12.8742 76.8509 12.7692C76.8113 12.6642 76.794 12.5521 76.8 12.44V10.82L79 10.39L79.82 7.00001C79.8634 6.79775 79.9808 6.61899 80.1491 6.49875C80.3175 6.37851 80.5246 6.32547 80.73 6.35001H82.89V10.4H86.26V13.23H82.89V20.11C82.8805 20.3942 82.961 20.6742 83.12 20.91C83.2007 21.0119 83.3044 21.0931 83.4226 21.147C83.5409 21.2009 83.6702 21.2259 83.8 21.22C83.923 21.2326 84.047 21.2326 84.17 21.22C84.2628 21.1905 84.353 21.1537 84.44 21.11L84.65 21.01C84.7234 20.9694 84.8062 20.9487 84.89 20.95C84.9442 20.9454 84.9987 20.9519 85.0503 20.9691C85.1019 20.9863 85.1494 21.0138 85.19 21.05C85.2868 21.1195 85.3684 21.208 85.43 21.31L86.68 23.31C86.1389 23.7157 85.5292 24.0206 84.88 24.21C84.2083 24.4102 83.5109 24.5113 82.81 24.51V24.46Z"
    fill="white"/>
  <path
    d="M98.2 24.24C97.8948 24.2587 97.5896 24.2038 97.31 24.08C97.0725 23.9195 96.8963 23.6834 96.81 23.41L96.52 22.65C96.17 22.95 95.84 23.2 95.52 23.43C95.2026 23.6467 94.8682 23.8373 94.52 24C94.1664 24.152 93.7977 24.266 93.42 24.34C92.9986 24.4238 92.5697 24.4641 92.14 24.46C91.557 24.4692 90.9763 24.3848 90.42 24.21C89.9326 24.0646 89.4823 23.8156 89.1 23.48C88.7348 23.1531 88.4506 22.7457 88.27 22.29C88.0617 21.7653 87.9597 21.2045 87.97 20.64C87.9796 20.1143 88.1096 19.5977 88.35 19.13C88.647 18.5563 89.0925 18.0729 89.64 17.73C90.4037 17.2354 91.2456 16.8736 92.13 16.66C93.4185 16.338 94.7419 16.1768 96.07 16.18V15.59C96.1273 14.9632 95.9451 14.3379 95.56 13.84C95.3779 13.6501 95.1564 13.5025 94.911 13.4075C94.6657 13.3124 94.4025 13.2724 94.14 13.29C93.7342 13.2822 93.3296 13.3361 92.94 13.45C92.6521 13.5505 92.3714 13.6708 92.1 13.81C91.8706 13.9438 91.6335 14.064 91.39 14.17C91.1321 14.2842 90.8519 14.3389 90.57 14.33C90.3087 14.3405 90.0505 14.2707 89.83 14.13C89.6359 13.9946 89.4752 13.8168 89.36 13.61L88.62 12.32C89.4275 11.5955 90.3684 11.0351 91.39 10.67C92.4481 10.3048 93.5607 10.1222 94.68 10.13C95.4495 10.1197 96.2136 10.2589 96.93 10.54C97.5776 10.7883 98.1617 11.1778 98.64 11.68C99.1242 12.1672 99.4962 12.7542 99.73 13.4C99.9791 14.1031 100.104 14.8441 100.1 15.59V24.24H98.2ZM93.45 21.72C93.9313 21.7271 94.4085 21.6317 94.85 21.44C95.3071 21.2109 95.7201 20.9029 96.07 20.53V18.61C95.3989 18.6277 94.7302 18.6979 94.07 18.82C93.6343 18.8977 93.2107 19.0322 92.81 19.22C92.5426 19.3375 92.3138 19.5282 92.15 19.77C92.0378 19.9755 91.9794 20.2059 91.98 20.44C91.9625 20.6247 91.9876 20.8109 92.0535 20.9843C92.1194 21.1577 92.2243 21.3136 92.36 21.44C92.7034 21.6453 93.1006 21.7428 93.5 21.72H93.45Z"
    fill="white"/>
  <path
    d="M2.07 0C1.93527 0.00341137 1.80261 0.0340245 1.68 0.09C1 0.47 0.620005 3 0.380005 5.82L0.490005 5.61L2.49001 4.48L5.44 1.7L5.83 1.15C4.65016 0.558196 3.37903 0.169421 2.07 0V0Z"
    fill="url(#paint0_linear)"/>
  <path
    d="M0.44001 24.24C0.69001 26.77 1.07001 28.89 1.68001 29.24C2.29001 29.59 3.91001 29 5.90001 28.15L5.59001 27.64L3.00001 25.64L1.00001 24.51C1.00001 24.51 0.43001 24.1 0.44001 24.24Z"
    fill="url(#paint1_linear)"/>
  <path
    d="M11.37 8.32001L6.49999 9.39001L3.30999 12.94L2.57999 17.63L4.47999 21.26L5.99999 22.66L6.99999 22.95L4.54999 19.13L4.10999 15.89L5.17999 13.2L8.25999 10.89H11.71L14.56 12.29L17 15.29L17.78 20.52L17.43 21.42L17.95 21.71C18.6633 21.27 19.4333 20.78 20.26 20.24L21.17 19.24L20.37 15.48L18.81 12.48L15.88 9.67001L11.37 8.32001Z"
    fill="url(#paint2_radial)"/>
  <path
    d="M5.82999 1.14999L5.35999 1.37999C3.46436 2.30261 1.7845 3.61447 0.429987 5.22999C0.429987 5.58999 0.359987 5.93999 0.329987 6.29999L1.32999 6.72999L6.18999 2.84999L6.88999 1.62999L5.82999 1.14999Z"
    fill="#FDE500"/>
  <path
    d="M10.15 9.84999C8.69894 9.83388 7.28652 10.3176 6.15001 11.22C4.30001 12.7 3.39001 15 3.39001 17.93L4.14001 19.93L5.14001 21.61L7.55001 22.83L9.68001 22.88L11.85 21.98L13.72 19.05L13.38 16.45L12 15L10.16 14.35L9.33001 14.43L10.33 15.31L11.65 16.87L11.96 18.87L11.05 20.63L9.21001 21.56L7.06001 21.33L5.53001 20.42L4.14001 18.38L4.37001 15.22L6.37001 12.08L9.28001 10.76L12.78 11.46L16 13.61L17.58 18.3L17.24 21.88L17.92 21.71L18.84 21.14C19.1893 19.6923 19.2437 18.1891 19 16.72C18.5412 14.8617 17.4878 13.2043 16 12C14.3869 10.5779 12.3001 9.81097 10.15 9.84999Z"
    fill="#F9F290"/>
  <path
    d="M0.440002 24.24C0.440002 24.56 0.500002 24.9 0.540002 25.24C0.857045 25.5608 1.19085 25.8645 1.54 26.15C2.83349 27.0959 4.30186 27.7757 5.86 28.15L6.65 27.79L5.32 26.94L1.32 24.37L0.440002 24.24Z"
    fill="#FCD600"/>
  <path
    d="M7.3 3.23001L2.49 5.13001L0.71 7.85001L0.11 9.94001C0 12.15 0 14.05 0 14.67C0 15.45 0 18.24 0.21 21.19L1.21 23.81L2.8 25.37L6.8 27.1L9.85 26.31C12.34 25.04 14.59 23.78 15.23 23.41L16.81 22.47L17.94 18.66L17 15.18L13.85 11.88L10.7 10.78L7.95 11.27L5 13.42L4.12 16.9L4.67 18.9L5.53 20.31L7.13 21.31L8.56 21.47L10.26 21.02L11.38 20.12L12 18.52L11.62 16.66L10.39 15.36L9.37 15L7.64 15.33L7.46 14.78L7.73 14.6L9.64 14.27L11.51 14.6L13.16 15.88L13.89 18.26L13.34 20.61L11.55 22.7L8.72 23.21L6.05 22.66L4.05 21.12L2.56 18.74L2.34 14.89L3.44 11.89L6.63 8.76001L12.17 8.29001L16.72 9.86001L20.31 13.49L21.31 15.95L21.59 17.88L22.59 18.68C24.94 17.04 26.92 15.44 26.92 14.68C26.92 12.92 16.67 6.81001 15.14 5.93001C14.56 5.59001 12.62 4.51001 10.41 3.37001L7.3 3.23001Z"
    fill="url(#paint3_radial)"/>
  <path
    d="M10.67 10.78L7.92 11.27L5 13.42L4.12 16.9L4.67 18.9L5.53 20.31L7.13 21.31L8.56 21.47L10.26 21.02L11.38 20.12L12 18.52L11.62 16.66L10.39 15.36L9.37 15L7.64 15.33L7.46 14.78L7.73 14.6L9.64 14.27L11.51 14.6L13.16 15.88L13.89 18.26L13.34 20.61L11.55 22.7L8.72 23.21L7.15 22.89L7.76 23.35C8.81556 24.2521 9.99402 24.9996 11.26 25.57C13.1 24.57 14.63 23.75 15.14 23.45L16.72 22.51L17.85 18.7L17.08 15.64L15.65 13.84L13.82 11.92L10.67 10.78Z"
    fill="url(#paint4_radial)"/>
  <path
    d="M7.30001 3.23001L2.49001 5.13001L0.670009 7.92001L0.110009 9.92001C0.110009 10.67 0.110009 11.39 0.0400085 12.04C0.880807 10.619 1.92903 9.33149 3.15001 8.22001C4.50492 6.92931 6.13858 5.96759 7.92462 5.40923C9.71066 4.85088 11.6012 4.71086 13.45 5.00001C12.59 4.52001 11.57 4.00001 10.45 3.38001L7.30001 3.23001Z"
    fill="url(#paint5_linear)"/>
  <path
    d="M6.04999 22.71C6.36424 24.2394 7.1766 25.6215 8.35999 26.64L9.75999 26.31L10.03 26.17C8.97063 25.3701 8.01347 24.4431 7.17999 23.41L6.04999 22.71Z"
    fill="#D34E27"/>
  <path
    d="M6.33999 26.45C5.68966 25.3333 5.44255 24.0271 5.63999 22.75L5.21999 22.57C4.68354 23.6296 4.54174 24.8455 4.81999 26L6.33999 26.45Z"
    fill="#CB3427"/>
  <path
    d="M3.28001 25.14C3.41896 23.9087 3.82141 22.7218 4.46001 21.66L3.93001 21.31C3.19104 22.2685 2.61654 23.3431 2.23001 24.49L3.28001 25.14Z"
    fill="#C42126"/>
  <path
    d="M6.88999 1.63C5.96949 2.0109 5.08298 2.46921 4.23998 3C2.77553 3.89354 1.45686 5.00649 0.329985 6.3C0.239985 7.53 0.159985 8.76 0.109985 9.94C0.963363 8.41392 2.1222 7.08016 3.51414 6.02201C4.90609 4.96386 6.50123 4.20404 8.19999 3.79C8.92855 3.59292 9.67052 3.4492 10.42 3.36C9.26999 2.76 8.05999 2.17 6.88999 1.63ZM11 7H10.33C8.79418 7.09952 7.30675 7.577 5.99999 8.39001C4.60637 9.25598 3.44322 10.4466 2.60999 11.86C1.66667 13.5575 1.31487 15.5206 1.60999 17.44C1.82631 19.3308 2.74325 21.0719 4.17999 22.32C5.21516 23.2394 6.52133 23.7971 7.90133 23.909C9.28133 24.0208 10.6603 23.6807 11.83 22.94C12.7839 22.3808 13.5288 21.5251 13.9512 20.5033C14.3737 19.4814 14.4505 18.3495 14.17 17.28C13.8681 16.1282 13.1571 15.1258 12.17 14.46C11.3815 13.937 10.4561 13.6587 9.50999 13.66C8.59386 13.6401 7.70668 13.9814 7.03999 14.61C6.68057 14.9364 6.40284 15.3426 6.22914 15.7959C6.05545 16.2492 5.99066 16.737 6.03999 17.22C6.06836 17.666 6.22773 18.0936 6.49812 18.4494C6.76851 18.8052 7.1379 19.0733 7.55999 19.22C7.88322 19.3269 8.22575 19.3625 8.56407 19.3246C8.90239 19.2866 9.22849 19.1759 9.51999 19C9.79777 18.791 10.0024 18.4996 10.1048 18.1674C10.2072 17.8352 10.202 17.4791 10.09 17.15C10.0269 16.9814 9.92786 16.8286 9.79977 16.7022C9.67167 16.5757 9.51758 16.4787 9.3482 16.4178C9.17883 16.3569 8.99822 16.3336 8.81893 16.3495C8.63965 16.3654 8.46598 16.4202 8.30999 16.51C8.11832 16.6233 7.97482 16.8028 7.90663 17.0148C7.83845 17.2267 7.85032 17.4562 7.93999 17.66C7.97784 17.7538 8.03843 17.8367 8.11629 17.9013C8.19415 17.9658 8.28684 18.01 8.38602 18.0298C8.4852 18.0497 8.58775 18.0445 8.68445 18.0149C8.78116 17.9853 8.86897 17.932 8.93999 17.86C9.11999 17.75 9.20999 17.43 9.07999 17.3C9.03745 17.2485 8.97894 17.2126 8.91373 17.1982C8.84852 17.1837 8.78033 17.1914 8.71999 17.22C8.68542 17.2355 8.655 17.2589 8.63122 17.2884C8.60744 17.3179 8.59098 17.3526 8.58317 17.3896C8.57537 17.4267 8.57645 17.4651 8.58633 17.5016C8.5962 17.5382 8.61459 17.5719 8.63999 17.6C8.60462 17.614 8.56652 17.6198 8.5286 17.6168C8.49067 17.6139 8.45391 17.6024 8.42112 17.5831C8.38833 17.5638 8.36038 17.5373 8.33939 17.5055C8.31839 17.4738 8.30492 17.4377 8.29999 17.4C8.28099 17.275 8.30408 17.1473 8.36563 17.0368C8.42718 16.9264 8.52369 16.8396 8.63999 16.79C8.80364 16.7282 8.98333 16.7231 9.15019 16.7757C9.31705 16.8283 9.46138 16.9355 9.55999 17.08C9.66751 17.2433 9.72482 17.4345 9.72482 17.63C9.72482 17.8255 9.66751 18.0167 9.55999 18.18C9.44815 18.3611 9.28745 18.5069 9.09638 18.6007C8.90531 18.6944 8.69165 18.7323 8.47999 18.71C8.22945 18.7165 7.982 18.6536 7.76495 18.5283C7.54789 18.403 7.36968 18.2202 7.24999 18C7.11444 17.6889 7.06609 17.3468 7.11013 17.0103C7.15417 16.6739 7.28894 16.3557 7.49999 16.09C7.76872 15.7938 8.12007 15.585 8.50867 15.4905C8.89727 15.3961 9.30527 15.4203 9.67999 15.56C10.0632 15.7196 10.409 15.957 10.6958 16.2571C10.9825 16.5572 11.2038 16.9136 11.3457 17.3036C11.4876 17.6937 11.5471 18.1089 11.5203 18.5232C11.4935 18.9374 11.381 19.3415 11.19 19.71C10.9525 20.1304 10.6125 20.4839 10.2016 20.7374C9.79066 20.9909 9.32224 21.1363 8.83999 21.16C8.25899 21.2094 7.67421 21.1312 7.12663 20.9308C6.57904 20.7304 6.08189 20.4127 5.66999 20C5.17905 19.4454 4.83127 18.7791 4.65696 18.0592C4.48266 17.3393 4.48713 16.5878 4.66999 15.87C4.92096 14.4674 5.71511 13.2205 6.87999 12.4C7.51936 11.932 8.2608 11.6227 9.04319 11.4975C9.82558 11.3723 10.6265 11.4349 11.38 11.68C12.6854 12.0257 13.8737 12.7166 14.82 13.68C15.847 14.6976 16.5439 16.0008 16.82 17.42C17.1446 19.1156 16.8312 20.8714 15.94 22.35C15.7696 22.6813 15.5687 22.996 15.34 23.29C15.8 23.02 16.74 22.46 17.98 21.7C18.3941 20.5857 18.5645 19.3957 18.48 18.21C18.3998 16.4812 17.7612 14.8251 16.66 13.49C15.8441 12.468 14.8056 11.6458 13.6237 11.086C12.4418 10.5262 11.1476 10.2437 9.83999 10.26C8.6007 10.293 7.405 10.7243 6.42999 11.49C5.4537 12.2201 4.69905 13.2067 4.24999 14.34C3.89564 15.2465 3.73881 16.2181 3.78999 17.19C3.84134 18.3988 4.34452 19.5444 5.19999 20.4C5.92507 21.1629 6.86802 21.6832 7.89999 21.89C8.84133 22.063 9.81349 21.8927 10.64 21.41C11.2714 21.0045 11.7798 20.4339 12.11 19.76C12.3162 19.2792 12.4198 18.7607 12.4142 18.2376C12.4085 17.7145 12.2938 17.1984 12.0773 16.7221C11.8609 16.2459 11.5474 15.8201 11.157 15.4719C10.7666 15.1237 10.3078 14.8608 9.80999 14.7C10.2653 14.723 10.7116 14.8356 11.1234 15.0312C11.5352 15.2268 11.9044 15.5016 12.21 15.84C12.8109 16.4803 13.1653 17.313 13.21 18.19C13.25 19.0443 13.0152 19.889 12.54 20.6C11.8848 21.5322 10.9095 22.1907 9.79999 22.45C8.66054 22.6575 7.48467 22.5 6.43999 22C5.56825 21.5925 4.81205 20.9738 4.23998 20.2C3.31477 18.8867 2.9217 17.2716 3.13999 15.68C3.32735 13.9961 4.06557 12.4212 5.23998 11.2C6.36939 10.0048 7.87158 9.22899 9.49999 9C11.566 8.70318 13.6686 9.18429 15.4 10.35C16.9133 11.3299 18.1522 12.679 19 14.27C20.0227 16.0941 20.4559 18.19 20.24 20.27C21.03 19.76 21.8 19.27 22.57 18.7C22.5112 17.7707 22.3604 16.8496 22.12 15.95C21.7008 14.2968 20.945 12.7479 19.9 11.4C18.7348 9.939 17.2409 8.77402 15.54 8C14.1175 7.34014 12.5681 6.99886 11 7ZM26.91 14.42C26.91 14.48 26.91 14.54 26.96 14.6C26.9382 14.5424 26.9079 14.4885 26.87 14.44L26.91 14.42ZM0.209985 21.19C0.269985 22.19 0.339985 23.25 0.439985 24.19C1.96388 25.8857 3.96468 27.0813 6.17999 27.62L6.68999 27.74C7.68999 27.28 8.73999 26.74 9.75999 26.26C9.00237 26.3452 8.2376 26.3452 7.47999 26.26C5.78169 26.1026 4.16927 25.441 2.84999 24.36C1.76025 23.4973 0.861313 22.4179 0.209985 21.19Z"
    fill="url(#paint6_radial)"/>
  <defs>
    <linearGradient id="paint0_linear" x1="0.431205" y1="4.3748" x2="1.7167" y2="7.2029" gradientUnits="userSpaceOnUse">
      <stop stop-color="#EE442A"/>
      <stop offset="1" stop-color="#B32625"/>
    </linearGradient>
    <linearGradient id="paint1_linear" x1="1784.32" y1="4760.94" x2="1784.62" y2="4761.42"
                    gradientUnits="userSpaceOnUse">
      <stop stop-color="#EE442A"/>
      <stop offset="1" stop-color="#B32625"/>
    </linearGradient>
    <radialGradient id="paint2_radial" cx="0" cy="0" r="1" gradientUnits="userSpaceOnUse"
                    gradientTransform="translate(8.99429 15.9257) rotate(-30.5065) scale(10.985 8.20296)">
      <stop stop-color="#F5EA14"/>
      <stop offset="0.68" stop-color="#F5EA14"/>
      <stop offset="1" stop-color="#FDD500"/>
    </radialGradient>
    <radialGradient id="paint3_radial" cx="0" cy="0" r="1" gradientUnits="userSpaceOnUse"
                    gradientTransform="translate(-0.5766 13.5472) rotate(31.1729) scale(25.7829 17.6294)">
      <stop stop-color="#EE442A"/>
      <stop offset="0.82" stop-color="#CF2027"/>
      <stop offset="1" stop-color="#EE442A"/>
    </radialGradient>
    <radialGradient id="paint4_radial" cx="0" cy="0" r="1" gradientUnits="userSpaceOnUse"
                    gradientTransform="translate(12.146 13.7644) rotate(58.4433) scale(9.70741 8.73739)">
      <stop stop-color="#F5EA14"/>
      <stop offset="0.62" stop-color="#F8A723" stop-opacity="0.62"/>
      <stop offset="1" stop-color="#F8BF2C" stop-opacity="0"/>
    </radialGradient>
    <linearGradient id="paint5_linear" x1="8.54201" y1="12.57" x2="6.23001" y2="7.74201" gradientUnits="userSpaceOnUse">
      <stop stop-color="#8C191B"/>
      <stop offset="1" stop-color="#8C191B" stop-opacity="0"/>
    </linearGradient>
    <radialGradient id="paint6_radial" cx="0" cy="0" r="1" gradientUnits="userSpaceOnUse"
                    gradientTransform="translate(8.28809 14.0816) rotate(23.5677) scale(24.5222 18.9363)">
      <stop stop-color="#333333"/>
      <stop offset="0.41" stop-color="#333333"/>
      <stop offset="0.53" stop-color="#1D1F33"/>
      <stop offset="0.56" stop-color="#333333"/>
      <stop offset="0.69" stop-color="#1D1F33"/>
      <stop offset="0.86" stop-color="#333333"/>
      <stop offset="1" stop-color="#1D1F33"/>
    </radialGradient>
  </defs>
</svg>
