<svg width="22" height="24" viewBox="0 0 22 24" fill="none" xmlns="http://www.w3.org/2000/svg">
  <path
    d="M10.875 0C9.75394 0 8.85139 0.892106 8.85139 2.00001V2.90241C5.3771 3.80091 2.78055 6.90781 2.78055 10.6133V16.3164L0.361699 19.1446C-0.47218 20.1193 0.22824 21.6125 1.51974 21.6133H8.34944C8.41065 22.9481 9.52307 23.9993 10.875 24C12.2269 23.9993 13.3393 22.9481 13.4006 21.6133H20.2303C21.5218 21.6125 22.2222 20.1193 21.3883 19.1446L18.9695 16.3164V10.6133C18.9695 6.9064 16.3748 3.7957 12.8986 2.8985V2.00001C12.8986 0.892106 11.9961 0 10.875 0Z"
    fill="#F9F9FB"/>
  <circle cx="18" cy="4" r="4" fill="#F84949"/>
</svg>
