<?xml version="1.0" encoding="UTF-8" standalone="no"?>
<svg height="64px" version="1.0" viewBox="0 0 128 128" width="64px" xml:space="preserve"
     xmlns="http://www.w3.org/2000/svg"><g><path d="M59.6 0h8v40h-8V0z" fill="#4193eb" fill-opacity="1"/><path
  d="M59.6 0h8v40h-8V0z" fill="#d9e9fb" fill-opacity="0.2" transform="rotate(30 64 64)"/><path d="M59.6 0h8v40h-8V0z"
                                                                                               fill="#d9e9fb"
                                                                                               fill-opacity="0.2"
                                                                                               transform="rotate(60 64 64)"/><path
  d="M59.6 0h8v40h-8V0z" fill="#d9e9fb" fill-opacity="0.2" transform="rotate(90 64 64)"/><path d="M59.6 0h8v40h-8V0z"
                                                                                               fill="#d9e9fb"
                                                                                               fill-opacity="0.2"
                                                                                               transform="rotate(120 64 64)"/><path
  d="M59.6 0h8v40h-8V0z" fill="#c6def9" fill-opacity="0.3" transform="rotate(150 64 64)"/><path d="M59.6 0h8v40h-8V0z"
                                                                                                fill="#b3d4f7"
                                                                                                fill-opacity="0.4"
                                                                                                transform="rotate(180 64 64)"/><path
  d="M59.6 0h8v40h-8V0z" fill="#a0c9f5" fill-opacity="0.5" transform="rotate(210 64 64)"/><path d="M59.6 0h8v40h-8V0z"
                                                                                                fill="#8dbef3"
                                                                                                fill-opacity="0.6"
                                                                                                transform="rotate(240 64 64)"/><path
  d="M59.6 0h8v40h-8V0z" fill="#7ab3f1" fill-opacity="0.7" transform="rotate(270 64 64)"/><path d="M59.6 0h8v40h-8V0z"
                                                                                                fill="#67a9ef"
                                                                                                fill-opacity="0.8"
                                                                                                transform="rotate(300 64 64)"/><path
  d="M59.6 0h8v40h-8V0z" fill="#549eed" fill-opacity="0.9" transform="rotate(330 64 64)"/><animateTransform
  attributeName="transform" calcMode="discrete" dur="720ms" repeatCount="indefinite" type="rotate"
  values="0 64 64;30 64 64;60 64 64;90 64 64;120 64 64;150 64 64;180 64 64;210 64 64;240 64 64;270 64 64;300 64 64;330 64 64"></animateTransform></g></svg>
