<svg width="41" height="18" viewBox="0 0 41 18" fill="none" xmlns="http://www.w3.org/2000/svg">
  <path
    d="M2.75 -3.34392e-06C3.23683 -3.30136e-06 3.71053 0.157897 4.1 0.449998L20.75 12.9375L37.4 0.45C37.6364 0.272716 37.9054 0.143724 38.1916 0.0703943C38.4778 -0.00293754 38.7757 -0.0191729 39.0682 0.0226134C39.3607 0.0643996 39.6421 0.163391 39.8964 0.313932C40.1506 0.464476 40.3727 0.663622 40.55 0.900001C40.7273 1.13638 40.8563 1.40536 40.9296 1.69159C41.0029 1.97782 41.0192 2.27569 40.9774 2.5682C40.9356 2.8607 40.8366 3.14211 40.6861 3.39636C40.5355 3.65061 40.3364 3.87271 40.1 4.05L22.1 17.55C21.7105 17.8421 21.2368 18 20.75 18C20.2632 18 19.7895 17.8421 19.4 17.55L1.4 4.05C1.02221 3.76666 0.74315 3.37163 0.602346 2.92087C0.461542 2.47012 0.466131 1.98649 0.615465 1.53848C0.764799 1.09048 1.05131 0.700821 1.4344 0.424702C1.8175 0.148581 2.27776 -3.38521e-06 2.75 -3.34392e-06Z"
    fill="white"/>
</svg>
