<svg width="12" height="12" viewBox="0 0 12 12" fill="none" xmlns="http://www.w3.org/2000/svg">
  <path
    d="M2.75 6.32V2.18C2.7487 2.06636 2.70298 1.95774 2.62262 1.87738C2.54226 1.79702 2.43364 1.7513 2.32 1.75H1.68C1.56636 1.7513 1.45774 1.79702 1.37738 1.87738C1.29702 1.95774 1.2513 2.06636 1.25 2.18V6.32C1.2513 6.43364 1.29702 6.54226 1.37738 6.62262C1.45774 6.70298 1.56636 6.7487 1.68 6.75H2.32C2.43364 6.7487 2.54226 6.70298 2.62262 6.62262C2.70298 6.54226 2.7487 6.43364 2.75 6.32ZM2.25 6.25H1.75V2.25H2.25V6.25Z"
    fill="#D22020"/>
  <path
    d="M10.75 5.66V5.58C10.7516 5.52781 10.7395 5.4761 10.715 5.43L9.27502 2.5C9.16109 2.27425 8.98669 2.08459 8.77127 1.95216C8.55585 1.81973 8.30788 1.74974 8.05502 1.75H5.00002C4.6693 1.75262 4.35288 1.88515 4.11902 2.11901C3.88517 2.35286 3.75263 2.66929 3.75002 3V6.685C3.74858 6.98134 3.84922 7.26913 4.03501 7.5L6.15002 10.12C6.1813 10.1589 6.22089 10.1903 6.26587 10.2119C6.31085 10.2335 6.3601 10.2449 6.41002 10.245C6.6328 10.245 6.84645 10.1565 7.00399 9.99897C7.16152 9.84144 7.25002 9.62778 7.25002 9.405V7.5C7.25249 7.43449 7.27962 7.37233 7.32598 7.32597C7.37234 7.27961 7.4345 7.25248 7.50002 7.25H9.15002C9.35947 7.25066 9.56701 7.21005 9.76078 7.1305C9.95454 7.05095 10.1307 6.93402 10.2793 6.78637C10.4279 6.63873 10.5459 6.46326 10.6267 6.27C10.7075 6.07674 10.7494 5.86946 10.75 5.66ZM10.25 5.66C10.2487 5.94868 10.1334 6.22516 9.92931 6.42929C9.72518 6.63342 9.4487 6.74869 9.16002 6.75H7.50002C7.30191 6.75259 7.11264 6.83244 6.97255 6.97253C6.83245 7.11263 6.75261 7.30189 6.75002 7.5V9.4C6.75057 9.4771 6.7245 9.55203 6.67623 9.61215C6.62795 9.67227 6.56042 9.71389 6.48502 9.73L4.42502 7.18C4.30976 7.03906 4.24781 6.86205 4.25002 6.68V3C4.25261 2.80189 4.33245 2.61263 4.47255 2.47253C4.61264 2.33244 4.80191 2.25259 5.00002 2.25H8.04502C8.20749 2.25209 8.36604 2.30016 8.50232 2.38865C8.63859 2.47714 8.74701 2.60243 8.81502 2.75L10.24 5.64L10.25 5.66Z"
    fill="#D22020"/>
</svg>
