<svg width="12" height="8" viewBox="0 0 12 8" fill="none" xmlns="http://www.w3.org/2000/svg">
  <path
    d="M1.51485 0.402517C1.21652 0.399521 0.92408 0.48559 0.674913 0.64972C0.425746 0.81385 0.231173 1.04858 0.116083 1.3239C0.000992734 1.59923 -0.0293841 1.90263 0.0288254 2.19531C0.0870348 2.488 0.231186 2.75667 0.442857 2.96697L4.92609 7.549C5.06575 7.69178 5.23251 7.80522 5.4166 7.88266C5.60068 7.96011 5.79838 8 5.99808 8C6.19778 8 6.39547 7.96011 6.57955 7.88266C6.76364 7.80522 6.9304 7.69178 7.07007 7.549L11.5533 2.96697C11.6952 2.82704 11.8077 2.66025 11.8844 2.47633C11.9611 2.2924 12.0004 2.09504 12 1.89576C11.9996 1.69647 11.9595 1.49927 11.8821 1.31566C11.8046 1.13205 11.6914 0.965718 11.5489 0.82637C11.4065 0.687022 11.2378 0.577455 11.0525 0.504066C10.8673 0.430677 10.6693 0.394939 10.4701 0.398937C10.2709 0.402935 10.0745 0.446589 9.8924 0.527351C9.71026 0.608113 9.54603 0.724363 9.40931 0.869314L5.99808 4.35564L2.58489 0.869314C2.44678 0.723911 2.28093 0.607684 2.09714 0.527506C1.91335 0.447328 1.71535 0.404828 1.51485 0.402517Z"
    fill="#F9F9FB"/>
</svg>
