<svg width="14" height="30" viewBox="0 0 14 30" fill="none" xmlns="http://www.w3.org/2000/svg">
  <path
    d="M13.3333 1.66667C13.3333 2.02728 13.2164 2.37817 13 2.66666L3.75 15L13 27.3333C13.1313 27.5084 13.2269 27.7077 13.2812 27.9197C13.3355 28.1317 13.3475 28.3524 13.3166 28.569C13.2856 28.7857 13.2123 28.9942 13.1008 29.1825C12.9893 29.3708 12.8418 29.5353 12.6667 29.6667C12.4916 29.798 12.2923 29.8935 12.0803 29.9479C11.8683 30.0022 11.6476 30.0142 11.431 29.9832C11.2143 29.9523 11.0058 29.879 10.8175 29.7675C10.6292 29.6559 10.4647 29.5084 10.3333 29.3333L0.333333 16C0.116963 15.7115 1.74573e-07 15.3606 1.78873e-07 15C1.83174e-07 14.6394 0.116963 14.2885 0.333334 14L10.3333 0.666666C10.5432 0.386822 10.8358 0.180109 11.1697 0.0758096C11.5036 -0.0284899 11.8619 -0.025091 12.1937 0.0855257C12.5256 0.196144 12.8142 0.408373 13.0187 0.692148C13.2233 0.975924 13.3333 1.31686 13.3333 1.66667Z"
    fill="white"/>
</svg>
