<svg width="14" height="30" viewBox="0 0 14 30" fill="none" xmlns="http://www.w3.org/2000/svg">
  <path
    d="M0.00016437 28.3333C0.000164366 27.9727 0.117127 27.6218 0.333497 27.3333L9.5835 15L0.333497 2.66667C0.202175 2.49157 0.106627 2.29232 0.0523072 2.0803C-0.00201223 1.86828 -0.0140381 1.64763 0.0169144 1.43096C0.0478668 1.21429 0.121194 1.00584 0.232706 0.817511C0.344219 0.629179 0.491735 0.464655 0.666831 0.333334C0.841927 0.202012 1.04117 0.106463 1.25319 0.052144C1.46522 -0.00217527 1.68586 -0.0142018 1.90253 0.016751C2.1192 0.0477039 2.32765 0.12103 2.51599 0.232543C2.70432 0.344056 2.86884 0.491571 3.00016 0.666667L13.0002 14C13.2165 14.2885 13.3335 14.6394 13.3335 15C13.3335 15.3606 13.2165 15.7115 13.0002 16L3.00016 29.3333C2.79028 29.6132 2.49767 29.8199 2.16378 29.9242C1.82988 30.0285 1.47164 30.0251 1.13978 29.9145C0.807931 29.8039 0.519294 29.5916 0.31476 29.3079C0.110226 29.0241 0.000164374 28.6831 0.00016437 28.3333Z"
    fill="white"/>
</svg>
